<svg width="18" height="19" viewBox="0 0 18 19" fill="none" xmlns="http://www.w3.org/2000/svg">
<g clip-path="url(#clip0_2_1640)">
<path d="M17.9824 5.79205C17.9402 4.83564 17.7856 4.17812 17.564 3.60836C17.3354 3.00359 16.9838 2.46213 16.5231 2.01201C16.073 1.55489 15.528 1.19969 14.9302 0.974702C14.3572 0.753147 13.7031 0.598484 12.7467 0.556316C11.7831 0.510576 11.4772 0.5 9.03338 0.5C6.58954 0.5 6.28365 0.510576 5.32367 0.552745C4.36726 0.594913 3.70973 0.749713 3.14012 0.971131C2.5352 1.19969 1.99375 1.55132 1.54363 2.01201C1.08651 2.46213 0.731445 3.00716 0.506318 3.60493C0.284763 4.17812 0.1301 4.83207 0.0879321 5.78848C0.0421926 6.75203 0.0316162 7.05792 0.0316162 9.50176C0.0316162 11.9456 0.0421926 12.2515 0.0843609 13.2115C0.126529 14.1679 0.281329 14.8254 0.502884 15.3952C0.731445 15.9999 1.08651 16.5414 1.54363 16.9915C1.99375 17.4486 2.53877 17.8038 3.13655 18.0288C3.70973 18.2504 4.36369 18.405 5.32023 18.4472C6.28008 18.4895 6.5861 18.4999 9.02994 18.4999C11.4738 18.4999 11.7797 18.4895 12.7397 18.4472C13.6961 18.405 14.3536 18.2504 14.9232 18.0288C16.1329 17.5611 17.0893 16.6047 17.557 15.3952C17.7784 14.822 17.9332 14.1679 17.9754 13.2115C18.0176 12.2515 18.0281 11.9456 18.0281 9.50176C18.0281 7.05792 18.0246 6.75203 17.9824 5.79205ZM16.3615 13.1411C16.3227 14.0202 16.1751 14.4949 16.052 14.8114C15.7495 15.5956 15.1272 16.2179 14.343 16.5204C14.0265 16.6434 13.5484 16.7911 12.6728 16.8297C11.7234 16.872 11.4386 16.8824 9.03695 16.8824C6.63528 16.8824 6.34697 16.872 5.401 16.8297C4.52192 16.7911 4.04722 16.6434 3.73075 16.5204C3.34052 16.3761 2.98532 16.1476 2.69701 15.8487C2.39812 15.5568 2.16956 15.2052 2.02534 14.815C1.90227 14.4985 1.75461 14.0202 1.71601 13.1447C1.67371 12.1953 1.66327 11.9104 1.66327 9.50876C1.66327 7.10709 1.67371 6.81878 1.71601 5.87295C1.75461 4.99387 1.90227 4.51917 2.02534 4.2027C2.16956 3.81234 2.39812 3.45727 2.70058 3.16883C2.99232 2.86994 3.34396 2.64138 3.73432 2.49729C4.05079 2.37422 4.52906 2.22656 5.40457 2.18783C6.35397 2.14566 6.63885 2.13508 9.04038 2.13508C11.4456 2.13508 11.7304 2.14566 12.6763 2.18783C13.5554 2.22656 14.0301 2.37422 14.3466 2.49729C14.7368 2.64138 15.092 2.86994 15.3803 3.16883C15.6792 3.46071 15.9078 3.81234 16.052 4.2027C16.1751 4.51917 16.3227 4.99731 16.3615 5.87295C16.4036 6.82236 16.4142 7.10709 16.4142 9.50876C16.4142 11.9104 16.4036 12.1917 16.3615 13.1411Z" fill="white"/>
<path d="M9.03337 4.87781C6.48061 4.87781 4.40942 6.94886 4.40942 9.50176C4.40942 12.0547 6.48061 14.1257 9.03337 14.1257C11.5863 14.1257 13.6573 12.0547 13.6573 9.50176C13.6573 6.94886 11.5863 4.87781 9.03337 4.87781ZM9.03337 12.5012C7.37727 12.5012 6.03393 11.158 6.03393 9.50176C6.03393 7.84552 7.37727 6.50232 9.03337 6.50232C10.6896 6.50232 12.0328 7.84552 12.0328 9.50176C12.0328 11.158 10.6896 12.5012 9.03337 12.5012Z" fill="white"/>
<path d="M14.9198 4.69499C14.9198 5.29111 14.4364 5.77447 13.8402 5.77447C13.244 5.77447 12.7607 5.29111 12.7607 4.69499C12.7607 4.09873 13.244 3.61551 13.8402 3.61551C14.4364 3.61551 14.9198 4.09873 14.9198 4.69499Z" fill="white"/>
</g>
<defs>
<clipPath id="clip0_2_1640">
<rect width="18" height="18" fill="white" transform="translate(0 0.5)"/>
</clipPath>
</defs>
</svg>
