<svg width="22" height="23" viewBox="0 0 22 23" fill="none" xmlns="http://www.w3.org/2000/svg">
<path d="M14.1535 16.5265L13.5971 20.9375C13.4845 21.8301 12.7188 22.5 11.811 22.5H10.189C9.28124 22.5 8.51552 21.8301 8.40296 20.9375L7.84658 16.5265C7.6094 14.6468 9.0884 12.9865 11 12.9865C9.51122 12.9865 8.3 11.7862 8.3 10.3108C8.3 8.83544 9.51122 7.63514 11 7.63514C12.4888 7.63514 13.7 8.83544 13.7 10.3108C13.7 11.7862 12.4888 12.9865 11 12.9865C12.9116 12.9865 14.3906 14.6468 14.1535 16.5265ZM11 5.85135C8.18786 5.85135 5.9 8.1186 5.9 10.9054C5.9 11.9099 6.19844 12.846 6.7103 13.6336C6.34238 14.2532 6.11582 14.9451 6.04574 15.6595C4.84208 14.4281 4.1 12.7511 4.1 10.9054C4.1 7.13502 7.19534 4.06757 11 4.06757C14.8047 4.06757 17.9 7.13502 17.9 10.9054C17.9 12.7511 17.1579 14.4281 15.9543 15.6595C15.8842 14.9451 15.6576 14.2532 15.2898 13.6336C15.8016 12.846 16.1 11.9099 16.1 10.9054C16.1 8.1186 13.8121 5.85135 11 5.85135ZM15.4903 20.31L15.7673 18.1137C18.1341 16.5712 19.7 13.9164 19.7 10.9054C19.7 6.15144 15.7972 2.28378 11 2.28378C6.20282 2.28378 2.3 6.15144 2.3 10.9054C2.3 13.9164 3.86594 16.5712 6.2327 18.1137L6.50972 20.31C2.96024 18.6389 0.5 15.0518 0.5 10.9054C0.5 5.16786 5.2103 0.5 11 0.5C16.7897 0.5 21.5 5.16786 21.5 10.9054C21.5 15.0518 19.0398 18.6389 15.4903 20.31Z" fill="white"/>
</svg>
