<svg width="18" height="19" viewBox="0 0 18 19" fill="none" xmlns="http://www.w3.org/2000/svg">
<path d="M2.60015 1.41403C1.36275 1.41403 0.553711 2.22657 0.553711 3.29455C0.553711 4.33894 1.33865 5.17465 2.55267 5.17465H2.57616C3.83776 5.17465 4.62291 4.33894 4.62291 3.29455C4.59932 2.22657 3.83776 1.41403 2.60015 1.41403Z" fill="white"/>
<path d="M0.767517 6.66058H4.38497V17.5438H0.767517V6.66058Z" fill="white"/>
<path d="M13.2641 6.40515C11.3127 6.40515 10.0041 8.23891 10.0041 8.23891V6.66058H6.38654V17.5438H10.0039V11.4662C10.0039 11.1408 10.0275 10.816 10.1231 10.5833C10.3846 9.93362 10.9797 9.26053 11.9791 9.26053C13.288 9.26053 13.8116 10.2586 13.8116 11.7216V17.5438H17.4287V11.3036C17.4287 7.96071 15.644 6.40515 13.2641 6.40515Z" fill="white"/>
</svg>
