<svg width="141" height="42" viewBox="0 0 141 42" fill="none" xmlns="http://www.w3.org/2000/svg">
<g clip-path="url(#clip0_2_1637)">
<path d="M12.0439 15.6373C12.0439 14.8763 11.9291 14.3229 11.6978 13.9314C10.9821 12.7316 9.71451 12.1326 7.89145 12.1326C6.64572 12.1326 5.67682 12.433 4.96107 13.0084C4.29268 13.5618 3.94664 14.2992 3.94664 15.2459C3.94664 16.0069 4.15426 16.6296 4.59318 17.0684C5.07763 17.5763 5.72417 17.9677 6.55466 18.2445C7.17752 18.452 7.91513 18.6596 8.81664 18.9127C11.4247 19.6282 13.2004 20.4584 14.1456 21.4033C15.2984 22.5557 15.8758 23.9867 15.8758 25.6708C15.8758 27.7463 14.9998 29.4067 13.2678 30.6302C11.9984 31.5296 10.2918 31.9902 8.14642 31.9902C4.89369 31.9902 2.58617 30.998 1.20203 28.9916C0.533634 28.0231 0.140245 26.8014 0.00183105 25.3012H3.55325C3.64614 26.2698 3.94482 27.0308 4.42927 27.608C5.28343 28.5765 6.52916 29.0608 8.1446 29.0608C9.36666 29.0608 10.3356 28.7841 11.0513 28.2069C11.8126 27.5843 12.2042 26.7996 12.2042 25.8765C12.2042 24.8843 11.7652 24.0778 10.8655 23.4078C10.2882 22.9927 9.08983 22.5321 7.24309 22.0478C4.93558 21.4488 3.25093 20.6641 2.16729 19.6955C0.967089 18.5886 0.367901 17.1812 0.367901 15.4753C0.367901 13.3761 1.24392 11.7157 2.99777 10.5396C4.33639 9.64021 6.02104 9.20144 8.02804 9.20144C10.8437 9.20144 12.9418 10.0553 14.304 11.7849C15.1109 12.799 15.5498 14.0916 15.619 15.6373H12.0421H12.0439Z" fill="white"/>
<path d="M21.8221 21.7729V31.4822H18.1996V0H21.8221V19.2349L30.5203 9.70939H35.0425L25.3517 20.3655L35.0188 31.4822H30.4967L21.8221 21.7729Z" fill="white"/>
<path d="M39.8633 2.03C40.2549 2.46877 40.4625 2.99857 40.4625 3.62122C40.4625 4.28939 40.2094 4.84286 39.6776 5.32715C39.2623 5.69674 38.7542 5.88062 38.155 5.88062C37.4392 5.88062 36.8856 5.62755 36.4485 5.14327C36.0569 4.70449 35.8493 4.17469 35.8493 3.57571C35.8493 2.88387 36.1025 2.30673 36.6343 1.82245C37.0258 1.45286 37.5576 1.26898 38.1805 1.26898C38.8489 1.26898 39.4262 1.52204 39.8651 2.03H39.8633ZM39.9325 9.71121V31.4841H36.3338V9.70939H39.9325V9.71121Z" fill="white"/>
<path d="M46.9971 31.4822H43.3747V0H46.9971V31.4822Z" fill="white"/>
<path d="M54.0599 31.4822H50.4375V0H54.0599V31.4822Z" fill="white"/>
<path d="M68.5024 15.6373C68.5024 14.8763 68.3876 14.3229 68.1563 13.9314C67.4406 12.7316 66.173 12.1326 64.3499 12.1326C63.1042 12.1326 62.1353 12.433 61.4196 13.0084C60.7512 13.5618 60.4051 14.2992 60.4051 15.2459C60.4051 16.0069 60.6128 16.6296 61.0517 17.0684C61.5361 17.5763 62.1827 17.9677 63.0132 18.2445C63.636 18.452 64.3736 18.6596 65.2751 18.9127C67.8832 19.6282 69.6589 20.4584 70.6041 21.4033C71.7569 22.5557 72.3343 23.9867 72.3343 25.6708C72.3343 27.7463 71.4583 29.4067 69.7263 30.6302C68.4568 31.5296 66.7503 31.9902 64.6049 31.9902C61.3522 31.9902 59.0447 30.998 57.6605 28.9916C56.9921 28.0231 56.5987 26.8014 56.4603 25.3012H60.0136C60.1064 26.2698 60.4051 27.0308 60.8896 27.608C61.7437 28.5765 62.9895 29.0608 64.6049 29.0608C65.827 29.0608 66.7959 28.7841 67.5116 28.2069C68.2729 27.5843 68.6645 26.7996 68.6645 25.8765C68.6645 24.8843 68.2255 24.0778 67.3259 23.4078C66.7485 22.9927 65.5501 22.5321 63.7034 22.0478C61.3959 21.4488 59.7112 20.6641 58.6276 19.6955C57.4274 18.5886 56.8282 17.1812 56.8282 15.4753C56.8282 13.3761 57.7042 11.7157 59.4581 10.5396C60.7967 9.64021 62.4813 9.20144 64.4884 9.20144C67.304 9.20144 69.4021 10.0553 70.7644 11.7849C71.5712 12.799 72.0101 14.0916 72.0793 15.6373H68.5024Z" fill="white"/>
<path d="M92.0292 0H95.6516V31.4822H92.0292V27.7463C91.1295 28.9916 90.2061 29.9147 89.3064 30.5137C87.8076 31.5059 86.0992 31.9902 84.2306 31.9902C81.1618 31.9902 78.6704 30.8833 76.7089 28.6912C74.8858 26.6394 73.9861 23.9867 73.9861 20.7114C73.9861 18.5667 74.4469 16.5604 75.3466 14.7143C76.1534 13.0302 77.3773 11.6921 78.9691 10.678C80.5608 9.68573 82.3147 9.17959 84.207 9.17959C85.7532 9.17959 87.2065 9.50184 88.6144 10.1718C89.7909 10.7016 90.9456 11.6484 92.0292 13.0084V0ZM79.3169 15.3606C78.3025 16.8827 77.7944 18.6814 77.7944 20.7569C77.7944 23.2712 78.5101 25.3012 79.9635 26.8233C81.2329 28.1833 82.8483 28.8533 84.7861 28.8533C86.9315 28.8533 88.6854 28.0467 90.0695 26.4537C90.7616 25.669 91.2697 24.6786 91.6158 23.4551C91.9163 22.4629 92.0547 21.518 92.0547 20.6186C92.0547 18.1043 91.3626 16.0743 90.0022 14.5759C88.6872 13.1231 87.0026 12.3857 84.9956 12.3857C82.5496 12.3857 80.6574 13.378 79.3206 15.3606H79.3169Z" fill="white"/>
<path d="M116.042 9.70939H119.665V31.4823H116.042V27.3076C113.942 30.4208 111.312 31.9902 108.105 31.9902C104.898 31.9902 102.521 30.8596 100.514 28.5765C98.7386 26.5465 97.8608 23.9176 97.8608 20.6878C97.8608 18.4265 98.3452 16.351 99.3141 14.4831C100.19 12.799 101.505 11.4608 103.237 10.4923C104.76 9.63839 106.421 9.20144 108.22 9.20144C110.019 9.20144 111.797 9.68572 113.319 10.6306C114.243 11.2078 115.143 12.1072 116.042 13.3069V9.70939ZM103.445 14.991C102.268 16.6278 101.669 18.5431 101.669 20.7333C101.669 23.2931 102.454 25.3467 104 26.8906C105.315 28.2051 106.861 28.8514 108.661 28.8514C110.923 28.8514 112.791 27.9065 114.245 26.0149C115.49 24.4237 116.113 22.5321 116.113 20.3637C116.113 17.9878 115.445 16.0961 114.13 14.6906C112.722 13.1686 110.923 12.4076 108.777 12.4076C106.493 12.4076 104.716 13.2614 103.448 14.991H103.445Z" fill="white"/>
<path d="M130.414 25.8547L136.919 9.70939H140.842L127.829 42H123.93L128.476 30.7904L120.723 9.70939H124.553L130.414 25.8547Z" fill="white"/>
</g>
<defs>
<clipPath id="clip0_2_1637">
<rect width="140.842" height="42" fill="white"/>
</clipPath>
</defs>
</svg>
