<svg width="24" height="23" viewBox="0 0 24 23" fill="none" xmlns="http://www.w3.org/2000/svg">
<path d="M22.3257 6.11055C22.0772 5.1868 21.3489 4.45861 20.4253 4.20988C18.738 3.7482 11.9885 3.7482 11.9885 3.7482C11.9885 3.7482 5.2393 3.7482 3.55197 4.19237C2.64612 4.44085 1.90004 5.18693 1.65156 6.11055C1.20752 7.79775 1.20752 11.2968 1.20752 11.2968C1.20752 11.2968 1.20752 14.8135 1.65156 16.483C1.9003 17.4066 2.62835 18.1348 3.5521 18.3836C5.25707 18.8454 11.9888 18.8454 11.9888 18.8454C11.9888 18.8454 18.738 18.8454 20.4253 18.4012C21.3491 18.1526 22.0772 17.4244 22.326 16.5008C22.7699 14.8135 22.7699 11.3146 22.7699 11.3146C22.7699 11.3146 22.7877 7.79775 22.3257 6.11055ZM9.83963 14.5293V8.06425L15.4521 11.2968L9.83963 14.5293Z" fill="white"/>
</svg>
